<svg id="Layer_1" height="28" viewBox="0 0 32 32" width="28" xmlns="http://www.w3.org/2000/svg" data-name="Layer 1"><path d="m2 3h3.208l3.535 15.026a2.992 2.992 0 0 0 .257 5.974h17a1 1 0 0 0 0-2h-17a1 1 0 0 1 0-2h16.882a2.99 2.99 0 0 0 2.92-2.313l2.119-9a3 3 0 0 0 -2.921-3.687h-20.267l-.759-3.229a1 1 0 0 0 -.974-.771h-4a1 1 0 0 0 0 2zm26 4a1.016 1.016 0 0 1 .974 1.229l-2.12 9a.994.994 0 0 1 -.972.771h-15.09l-2.592-11z"/><path d="m20 28a3 3 0 1 0 3-3 3 3 0 0 0 -3 3zm4 0a1 1 0 1 1 -1-1 1 1 0 0 1 1 1z"/><path d="m9 28a3 3 0 1 0 3-3 3 3 0 0 0 -3 3zm4 0a1 1 0 1 1 -1-1 1 1 0 0 1 1 1z"/></svg>