<?xml version="1.0" standalone="no"?>
<!DOCTYPE svg PUBLIC "-//W3C//DTD SVG 20010904//EN"
 "http://www.w3.org/TR/2001/REC-SVG-20010904/DTD/svg10.dtd">
<svg version="1.0" xmlns="http://www.w3.org/2000/svg"
 width="401.000000pt" height="401.000000pt" viewBox="0 0 401.000000 401.000000"
 preserveAspectRatio="xMidYMid meet">
<metadata>
Created by potrace 1.11, written by Peter Selinger 2001-2013
</metadata>
<g transform="translate(0.000000,401.000000) scale(0.100000,-0.100000)"
fill="#000000" stroke="none">
<path d="M2190 3858 c-15 -37 -142 -295 -184 -372 -37 -70 -45 -78 -75 -72
-85 17 -352 24 -428 12 -15 -3 -48 -7 -73 -11 -99 -13 -198 -37 -300 -72 -88
-30 -261 -112 -314 -148 -20 -14 -39 -25 -41 -25 -9 0 -110 -74 -170 -124
-169 -142 -330 -345 -430 -545 -59 -118 -124 -316 -140 -427 -3 -21 -8 -45
-10 -52 -17 -49 -23 -285 -11 -429 28 -354 212 -749 455 -981 245 -234 470
-369 741 -445 104 -30 115 -32 208 -47 80 -13 459 -12 527 1 28 6 61 12 74 15
236 48 495 171 696 333 107 86 188 170 309 321 94 119 231 418 267 583 7 32
17 61 22 64 8 5 43 13 197 48 47 10 183 61 244 91 100 48 173 110 216 182 35
57 37 67 39 149 2 92 -12 151 -59 243 -24 49 -116 184 -159 234 -73 86 -297
301 -427 410 -65 54 -56 23 14 -46 40 -40 84 -90 98 -111 126 -187 93 -349
-104 -505 -30 -23 -58 -40 -62 -37 -7 4 -23 73 -21 90 1 11 -70 205 -98 269
-196 436 -600 785 -1056 913 -52 15 -95 31 -95 36 0 5 41 112 90 239 50 126
90 234 90 239 0 21 -18 7 -30 -23z m1645 -1566 c73 -102 106 -160 135 -242 95
-268 -85 -457 -535 -560 -49 -12 -99 -24 -109 -27 -14 -4 -18 -1 -13 10 23 59
29 453 8 537 -10 41 -9 46 12 63 132 108 177 156 211 231 42 89 34 201 -19
293 -14 23 -25 45 -25 49 0 18 280 -278 335 -354z"/>
</g>
</svg>
